# xmcd
#
# Track frame offsets:
#	182
#	14837
#	27212
#	36755
#	46470
#	57965
#	69332
#	81680
#	91710
#	107557
#	119315
#	135840
#	145592
#	158152
#
# Disc length: 2237 seconds
#
# Revision: 1
# Processed by: cddbd v1.5.2PL0 Copyright (c) Steve Scherf et al.
# Submitted via: audiograbber 1.83.01
#
DISCID=b308bb0e
DTITLE=Various Artist - Country Greats
DYEAR=1900
DGENRE=Country
TTITLE0=Jeannie C. Riley - Harper Valley P.T.A.
TTITLE1=Johnny Cash - I walk the line
TTITLE2=Linda Martel - Before the next teardrop falls
TTITLE3=Webb Pierce - In the jailhouse now
TTITLE4=Willie Nelson - Nightlife
TTITLE5=Hank Locklin - Send me the pillow you dream on
TTITLE6=Jimmy C. Newman - Jambalaya (on the Bayou)
TTITLE7=Hank Locklin - We're gonna go fishin'
TTITLE8=Rod Hart - C.B. Savage
TTITLE9=David Allan Coe - Got you on my mind
TTITLE10=Jimmie Davis - You are my sunshine
TTITLE11=Ned Miller - From a Jack to a King
TTITLE12=Randy Travis - Dreaming
TTITLE13=Dave Dudley - 6 Days on the road
EXTD=
EXTT0=
EXTT1=
EXTT2=
EXTT3=
EXTT4=
EXTT5=
EXTT6=
EXTT7=
EXTT8=
EXTT9=
EXTT10=
EXTT11=
EXTT12=
EXTT13=
PLAYORDER=
